# xmcd
#
# Track frame offsets:
#   150
#   20665
#   31141
#   51351
#   64700
#   84114
#   96456
#   116822
#   133023
#   151021
#   159928
#   167289
#   182011
#   193871
#   208991
#   225345
#   239748
#   246684
#   265377
#
# Disc length: 3674 seconds
#
# Revision: 0
# Processed by: cddbd v1.5.1PL0 Copyright (c) Steve Scherf et al.
# Submitted via: GXTranscoder 2.0.1939
#
DISCID=070e5813
DTITLE=nhjnvbn - bnvv
DYEAR=2001
DGENRE=vbnvbn
TTITLE0=bfghf
TTITLE1=b
TTITLE2=b
TTITLE3=xxc
TTITLE4=wv
TTITLE5=fg
TTITLE6=gfg
TTITLE7=fh
TTITLE8=fh
TTITLE9=dh
TTITLE10=dfhf
TTITLE11=hdh
TTITLE12=fhd
TTITLE13=dfh
TTITLE14=dfdf
TTITLE15=ghf
TTITLE16=ghf
TTITLE17=fhgd
TTITLE18=gjy
EXTD=
EXTT0=
EXTT1=
EXTT2=
EXTT3=
EXTT4=
EXTT5=
EXTT6=
EXTT7=
EXTT8=
EXTT9=
EXTT10=
EXTT11=
EXTT12=
EXTT13=
EXTT14=
EXTT15=
EXTT16=
EXTT17=
EXTT18=
PLAYORDER=
